<svg width="50" height="52" viewBox="0 0 50 52" fill="none" xmlns="http://www.w3.org/2000/svg">
<path d="M31.9852 16.6494H17.3702C14.5027 16.6494 12.1777 18.9964 12.1777 21.8893V29.262C12.1777 32.1574 14.5027 34.5019 17.3702 34.5019H31.9852C34.8527 34.5019 37.1777 32.1549 37.1777 29.262V21.8893C37.1777 18.9939 34.8527 16.6494 31.9852 16.6494ZM28.4752 25.9354L21.6377 29.2263C21.5959 29.2464 21.5498 29.2555 21.5036 29.2526C21.4574 29.2498 21.4127 29.2351 21.3736 29.2099C21.3344 29.1847 21.3021 29.1499 21.2797 29.1086C21.2573 29.0673 21.2454 29.0209 21.2452 28.9737V22.1878C21.2457 22.14 21.258 22.0931 21.2812 22.0515C21.3044 22.01 21.3376 21.9751 21.3777 21.9503C21.4177 21.9256 21.4633 21.9116 21.5102 21.9099C21.557 21.9081 21.6035 21.9186 21.6452 21.9404L28.4802 25.4353C28.5252 25.4593 28.5628 25.4955 28.5888 25.5399C28.6149 25.5843 28.6284 25.6352 28.6279 25.6869C28.6273 25.7387 28.6128 25.7892 28.5859 25.8331C28.5589 25.8769 28.5206 25.9123 28.4752 25.9354Z" fill="#FF9B05"/>
<path d="M10.5 2.04087C9.17392 2.04087 5.43768 3.63511 4.5 4.59195C3.56232 5.54879 2.5 8.85115 2.5 10.2043V40.8173C2.5 42.1705 3.74005 45.4729 4.67773 46.4297C5.61542 47.3866 8.67392 48.9808 10 48.9808H25H39.6777C41.0038 48.9808 44.7401 46.3661 45.6777 45.4093C46.6154 44.4524 47.5 42.1705 47.5 40.8173V25.5108V10.2043C47.5 8.85115 46.4377 6.05901 45.5 5.10217C44.5623 4.14532 41.3261 2.04087 40 2.04087H10.5ZM10 0H40C42.6522 0 45.1957 1.0751 47.0711 2.98878C48.9464 4.90246 50 7.49797 50 10.2043V40.8173C50 43.5237 48.9464 46.1192 47.0711 48.0329C45.1957 49.9466 42.6522 51.0217 40 51.0217H10C7.34784 51.0217 4.8043 49.9466 2.92893 48.0329C1.05357 46.1192 0 43.5237 0 40.8173V10.2043C0 7.49797 1.05357 4.90246 2.92893 2.98878C4.8043 1.0751 7.34784 0 10 0Z" fill="#FF9B05"/>
</svg>
