<svg width="50" height="52" viewBox="0 0 50 52" fill="none" xmlns="http://www.w3.org/2000/svg">
<path d="M21.0074 36.3471L11.3643 26.5177L14.5779 23.2428L21.0074 29.7927L33.862 16.6907L37.0779 19.9679L21.0074 36.3471Z" fill="#FF9B05"/>
<path fill-rule="evenodd" clip-rule="evenodd" d="M0 26.3559C0 12.2858 11.1932 0.87915 25 0.87915C38.8068 0.87915 50 12.2858 50 26.3559C50 40.426 38.8068 51.8326 25 51.8326C11.1932 51.8326 0 40.426 0 26.3559ZM25 47.2005C22.3139 47.2005 19.654 46.6613 17.1724 45.6138C14.6907 44.5662 12.4358 43.0308 10.5365 41.0952C8.63707 39.1596 7.1304 36.8617 6.10246 34.3328C5.07453 31.8038 4.54545 29.0932 4.54545 26.3559C4.54545 23.6185 5.07453 20.908 6.10246 18.379C7.1304 15.85 8.63707 13.5521 10.5365 11.6165C12.4358 9.68092 14.6907 8.14552 17.1724 7.09798C19.654 6.05044 22.3139 5.51128 25 5.51128C30.4249 5.51128 35.6276 7.7074 39.4635 11.6165C43.2995 15.5256 45.4545 20.8275 45.4545 26.3559C45.4545 31.8842 43.2995 37.1861 39.4635 41.0952C35.6276 45.0044 30.4249 47.2005 25 47.2005Z" fill="#FF9B05"/>
</svg>
