<svg width="52" height="54" viewBox="0 0 52 54" fill="none" xmlns="http://www.w3.org/2000/svg">
<path d="M39.6364 1H12.3636C6.08767 1 1 6.19163 1 12.5958V40.4258C1 46.83 6.08767 52.0217 12.3636 52.0217H39.6364C45.9123 52.0217 51 46.83 51 40.4258V12.5958C51 6.19163 45.9123 1 39.6364 1Z" stroke="#FF9B05" stroke-width="2" stroke-linecap="round" stroke-linejoin="round"/>
<path d="M14.6367 18.3936C14.9073 22.1199 16.1371 25.6639 18.1649 28.5609C20.1928 31.4579 22.924 33.5726 26.0004 34.6277V18.3936M37.364 18.3936C35.8488 22.2588 32.8185 24.9645 28.2731 26.5106M28.2731 26.5106C32.8185 28.0567 35.8488 30.7624 37.364 34.6277M28.2731 26.5106H26.0004" stroke="#FF9B05" stroke-width="2" stroke-linecap="round" stroke-linejoin="round"/>
</svg>
